<svg width="666" height="439" viewBox="0 0 666 439" fill="none" xmlns="http://www.w3.org/2000/svg">
<path d="M427.457 126.437C427.068 109.56 413.479 96 396.773 96C383.955 96 372.831 104.207 368.235 115.55C368.147 115.766 367.923 115.896 367.692 115.866C366.81 115.751 365.912 115.692 365 115.692C355.308 114.872 344 123.603 344 135.385C344 147.167 353.402 156 365 156H433.654C442.129 156 449 149.738 449 141.128C449 132.518 442.129 125.538 433.654 125.538C431.907 125.538 429.82 126.255 428.153 126.906C427.823 127.035 427.465 126.791 427.457 126.437Z" stroke="#001E2B"/>
<path d="M423.112 150.341C422.721 142.357 415.943 136 407.638 136C401.239 136 395.676 139.88 393.31 145.269C393.218 145.479 392.999 145.605 392.771 145.58C392.386 145.539 391.996 145.518 391.6 145.518C386.708 145.121 381 149.341 381 155.036C381 160.731 385.746 165 391.6 165H426.254C430.532 165 434 161.973 434 157.812C434 153.65 430.532 150.277 426.254 150.277C425.486 150.277 424.588 150.54 423.813 150.815C423.482 150.933 423.129 150.692 423.112 150.341Z" fill="#00ED64" stroke="#001E2B"/>
<circle cx="474" cy="116" r="4" fill="#001E2B"/>
<path d="M563 116L474 116" stroke="#001E2B" stroke-width="2"/>
<path d="M498.363 182V173.48H496.947V179.588L492.159 173.48H490.935V182H492.339V175.868L497.139 182H498.363ZM499.745 179C499.745 180.716 500.993 182.12 502.637 182.12C503.501 182.12 504.221 181.676 504.557 181.196V182H505.877V176H504.557V176.804C504.221 176.324 503.501 175.88 502.637 175.88C500.993 175.88 499.745 177.284 499.745 179ZM504.665 179C504.665 180.08 503.945 180.92 502.877 180.92C501.809 180.92 501.089 180.08 501.089 179C501.089 177.92 501.809 177.08 502.877 177.08C503.945 177.08 504.665 177.92 504.665 179ZM509.537 182H510.701L513.425 176H511.949L510.113 180.2L508.289 176H506.825L509.537 182ZM515.881 173.804C515.881 173.324 515.497 172.928 515.005 172.928C514.525 172.928 514.117 173.324 514.117 173.804C514.117 174.296 514.525 174.692 515.005 174.692C515.497 174.692 515.881 174.296 515.881 173.804ZM514.345 182H515.665V176H514.345V182ZM517.235 182.468C517.391 183.716 518.507 184.628 520.151 184.628C521.759 184.628 523.139 183.716 523.139 181.628V176H521.819V176.804C521.459 176.276 520.727 175.88 519.899 175.88C518.279 175.88 517.019 177.224 517.019 178.916C517.019 180.62 518.279 181.964 519.899 181.964C520.727 181.964 521.459 181.556 521.819 181.028V181.736C521.819 182.9 521.087 183.5 520.187 183.5C519.347 183.5 518.771 183.176 518.531 182.468H517.235ZM521.927 178.916C521.927 179.984 521.159 180.752 520.139 180.752C519.119 180.752 518.351 179.984 518.351 178.916C518.351 177.848 519.119 177.08 520.139 177.08C521.159 177.08 521.927 177.848 521.927 178.916ZM524.483 179C524.483 180.716 525.731 182.12 527.375 182.12C528.239 182.12 528.959 181.676 529.295 181.196V182H530.615V176H529.295V176.804C528.959 176.324 528.239 175.88 527.375 175.88C525.731 175.88 524.483 177.284 524.483 179ZM529.403 179C529.403 180.08 528.683 180.92 527.615 180.92C526.547 180.92 525.827 180.08 525.827 179C525.827 177.92 526.547 177.08 527.615 177.08C528.683 177.08 529.403 177.92 529.403 179ZM535.992 181.928V180.752C535.8 180.824 535.536 180.872 535.284 180.872C534.6 180.872 534.276 180.596 534.276 179.852V177.176H535.992V176H534.276V174.332H532.956V176H531.708V177.176H532.956V180.068C532.956 181.424 533.856 182.06 535.008 182.06C535.416 182.06 535.728 182.012 535.992 181.928ZM542.753 180.116H541.373C541.097 180.692 540.521 180.956 539.861 180.956C538.793 180.956 538.097 180.236 538.049 179.324H542.825C542.945 177.284 541.661 175.88 539.825 175.88C537.977 175.88 536.741 177.224 536.741 179C536.741 180.8 538.025 182.12 539.813 182.12C541.337 182.12 542.417 181.244 542.753 180.116ZM539.789 176.984C540.521 176.984 541.205 177.416 541.409 178.388H538.097C538.277 177.464 538.961 176.984 539.789 176.984ZM553.521 182H555.261L553.053 179.864L554.661 177.896H553.101L552.189 179.036L550.569 177.452C551.409 177.008 552.129 176.42 552.129 175.376C552.129 174.296 551.241 173.336 549.897 173.336C548.601 173.336 547.617 174.224 547.617 175.364C547.617 176.144 548.109 176.732 548.601 177.224C547.701 177.752 546.897 178.436 546.897 179.636C546.897 181.028 547.905 182.12 549.609 182.12C550.653 182.12 551.409 181.7 552.273 180.788L553.521 182ZM548.889 175.376C548.889 174.812 549.345 174.464 549.873 174.464C550.437 174.464 550.821 174.872 550.821 175.448C550.821 176.036 550.413 176.324 549.789 176.648L549.753 176.672C549.261 176.204 548.889 175.88 548.889 175.376ZM548.205 179.66C548.205 179.024 548.601 178.532 549.453 178.064L551.421 179.96C550.797 180.632 550.257 180.944 549.621 180.944C548.925 180.944 548.205 180.512 548.205 179.66ZM558.939 182H564.063V180.656H560.343V178.352H563.343V177.008H560.343V174.824H564.063V173.48H558.939V182ZM564.693 182H566.301L567.921 179.972L569.541 182H571.137L568.749 179.012L571.005 176H569.421L567.909 178.016L566.397 176H564.825L567.081 179.012L564.693 182ZM572.083 184.508H573.403V181.196C573.739 181.676 574.471 182.12 575.335 182.12C576.979 182.12 578.227 180.716 578.227 179C578.227 177.284 576.979 175.88 575.335 175.88C574.471 175.88 573.739 176.324 573.403 176.804V176H572.083V184.508ZM576.883 179C576.883 180.08 576.151 180.92 575.095 180.92C574.027 180.92 573.295 180.08 573.295 179C573.295 177.92 574.027 177.08 575.095 177.08C576.151 177.08 576.883 177.92 576.883 179ZM579.572 182H580.892V173H579.572V182ZM588.521 179C588.521 177.26 587.153 175.88 585.377 175.88C583.601 175.88 582.233 177.26 582.233 179C582.233 180.74 583.601 182.12 585.377 182.12C587.153 182.12 588.521 180.74 588.521 179ZM583.565 179C583.565 177.932 584.309 177.104 585.377 177.104C586.433 177.104 587.177 177.932 587.177 179C587.177 180.068 586.433 180.896 585.377 180.896C584.309 180.896 583.565 180.068 583.565 179ZM589.849 182H591.169V179.072C591.169 177.872 591.853 177.236 592.609 177.236C592.849 177.236 593.041 177.272 593.269 177.344V175.988C593.089 175.952 592.921 175.94 592.753 175.94C592.069 175.94 591.397 176.384 591.169 177.068V176H589.849V182ZM599.789 180.116H598.409C598.133 180.692 597.557 180.956 596.897 180.956C595.829 180.956 595.133 180.236 595.085 179.324H599.861C599.981 177.284 598.697 175.88 596.861 175.88C595.013 175.88 593.777 177.224 593.777 179C593.777 180.8 595.061 182.12 596.849 182.12C598.373 182.12 599.453 181.244 599.789 180.116ZM596.825 176.984C597.557 176.984 598.241 177.416 598.445 178.388H595.133C595.313 177.464 595.997 176.984 596.825 176.984ZM606.161 182H607.565V178.412L610.805 173.48H609.149L606.857 177.008L604.577 173.48H602.933L606.161 178.4V182ZM616.224 179C616.224 177.26 614.856 175.88 613.08 175.88C611.304 175.88 609.936 177.26 609.936 179C609.936 180.74 611.304 182.12 613.08 182.12C614.856 182.12 616.224 180.74 616.224 179ZM611.268 179C611.268 177.932 612.012 177.104 613.08 177.104C614.136 177.104 614.88 177.932 614.88 179C614.88 180.068 614.136 180.896 613.08 180.896C612.012 180.896 611.268 180.068 611.268 179ZM617.468 179.588C617.468 181.124 618.32 182.12 619.7 182.12C620.468 182.12 621.104 181.784 621.452 181.184V182H622.772V176H621.452V178.952C621.452 180.236 620.84 180.92 619.988 180.92C619.22 180.92 618.788 180.332 618.788 179.372V176H617.468V179.588ZM624.548 182H625.868V179.072C625.868 177.872 626.552 177.236 627.308 177.236C627.548 177.236 627.74 177.272 627.968 177.344V175.988C627.788 175.952 627.62 175.94 627.452 175.94C626.768 175.94 626.096 176.384 625.868 177.068V176H624.548V182ZM631.794 182H634.41C636.942 182 638.874 180.152 638.874 177.74C638.874 175.328 636.942 173.48 634.41 173.48H631.794V182ZM633.198 180.692V174.788H634.41C636.234 174.788 637.446 176.072 637.446 177.74C637.446 179.408 636.234 180.692 634.41 180.692H633.198ZM639.831 179C639.831 180.716 641.079 182.12 642.723 182.12C643.587 182.12 644.307 181.676 644.643 181.196V182H645.963V176H644.643V176.804C644.307 176.324 643.587 175.88 642.723 175.88C641.079 175.88 639.831 177.284 639.831 179ZM644.751 179C644.751 180.08 644.031 180.92 642.963 180.92C641.895 180.92 641.175 180.08 641.175 179C641.175 177.92 641.895 177.08 642.963 177.08C644.031 177.08 644.751 177.92 644.751 179ZM651.339 181.928V180.752C651.147 180.824 650.883 180.872 650.631 180.872C649.947 180.872 649.623 180.596 649.623 179.852V177.176H651.339V176H649.623V174.332H648.303V176H647.055V177.176H648.303V180.068C648.303 181.424 649.203 182.06 650.355 182.06C650.763 182.06 651.075 182.012 651.339 181.928ZM652.077 179C652.077 180.716 653.325 182.12 654.969 182.12C655.833 182.12 656.553 181.676 656.889 181.196V182H658.209V176H656.889V176.804C656.553 176.324 655.833 175.88 654.969 175.88C653.325 175.88 652.077 177.284 652.077 179ZM656.997 179C656.997 180.08 656.277 180.92 655.209 180.92C654.141 180.92 653.421 180.08 653.421 179C653.421 177.92 654.141 177.08 655.209 177.08C656.277 177.08 656.997 177.92 656.997 179ZM523.607 197.504L526.679 193.376V200H527.783V191.48H526.775L523.607 195.728L520.439 191.48H519.419V200H520.535V193.376L523.607 197.504ZM535.582 197C535.582 195.272 534.25 193.88 532.45 193.88C530.638 193.88 529.306 195.272 529.306 197C529.306 198.728 530.638 200.12 532.45 200.12C534.25 200.12 535.582 198.728 535.582 197ZM530.362 197C530.362 195.8 531.202 194.84 532.45 194.84C533.698 194.84 534.526 195.8 534.526 197C534.526 198.2 533.698 199.16 532.45 199.16C531.202 199.16 530.362 198.2 530.362 197ZM537.064 200H538.096V197.024C538.096 195.62 538.864 194.828 539.836 194.828C540.676 194.828 541.252 195.452 541.252 196.46V200H542.272V196.304C542.272 194.816 541.348 193.88 540.004 193.88C539.224 193.88 538.504 194.216 538.096 194.924V194H537.064V200ZM543.866 200.552C544.046 201.764 545.162 202.628 546.77 202.628C548.402 202.628 549.722 201.632 549.722 199.628V194H548.69V194.924C548.282 194.324 547.49 193.88 546.602 193.88C544.934 193.88 543.662 195.224 543.662 196.928C543.662 198.644 544.934 199.988 546.602 199.988C547.49 199.988 548.282 199.532 548.69 198.932V199.64C548.69 200.996 547.874 201.716 546.794 201.716C545.822 201.716 545.15 201.344 544.874 200.552H543.866ZM548.774 196.928C548.774 198.14 547.946 199.028 546.746 199.028C545.546 199.028 544.718 198.14 544.718 196.928C544.718 195.728 545.546 194.828 546.746 194.828C547.946 194.828 548.774 195.728 548.774 196.928ZM557.461 197C557.461 195.272 556.129 193.88 554.329 193.88C552.517 193.88 551.185 195.272 551.185 197C551.185 198.728 552.517 200.12 554.329 200.12C556.129 200.12 557.461 198.728 557.461 197ZM552.241 197C552.241 195.8 553.081 194.84 554.329 194.84C555.577 194.84 556.405 195.8 556.405 197C556.405 198.2 555.577 199.16 554.329 199.16C553.081 199.16 552.241 198.2 552.241 197ZM559.064 200H561.512C564.128 200 566.048 198.176 566.048 195.74C566.048 193.304 564.128 191.48 561.512 191.48H559.064V200ZM560.18 198.956V192.524H561.512C563.564 192.524 564.92 193.892 564.92 195.74C564.92 197.588 563.564 198.956 561.512 198.956H560.18ZM567.712 200H570.76C572.488 200 573.616 198.932 573.616 197.516C573.616 196.376 572.968 195.776 572.14 195.476C572.68 195.14 573.052 194.576 573.052 193.736C573.052 192.536 572.092 191.48 570.508 191.48H567.712V200ZM568.828 195.14V192.488H570.508C571.42 192.488 571.96 193.1 571.96 193.82C571.96 194.576 571.42 195.14 570.508 195.14H568.828ZM568.828 198.992V196.1H570.82C571.948 196.1 572.524 196.724 572.524 197.552C572.524 198.392 571.948 198.992 570.808 198.992H568.828ZM577.577 195.74C577.577 198.224 579.497 200.144 581.993 200.144C584.141 200.144 585.701 198.74 586.073 197.192H584.897C584.525 198.26 583.409 199.088 581.993 199.088C580.097 199.088 578.693 197.624 578.693 195.74C578.693 193.856 580.097 192.392 581.993 192.392C583.409 192.392 584.525 193.22 584.897 194.288H586.073C585.701 192.74 584.141 191.336 581.993 191.336C579.497 191.336 577.577 193.256 577.577 195.74ZM593.25 197C593.25 195.272 591.918 193.88 590.118 193.88C588.306 193.88 586.974 195.272 586.974 197C586.974 198.728 588.306 200.12 590.118 200.12C591.918 200.12 593.25 198.728 593.25 197ZM588.03 197C588.03 195.8 588.87 194.84 590.118 194.84C591.366 194.84 592.194 195.8 592.194 197C592.194 198.2 591.366 199.16 590.118 199.16C588.87 199.16 588.03 198.2 588.03 197ZM594.732 200H595.764V197.024C595.764 195.668 596.448 194.828 597.42 194.828C598.2 194.828 598.596 195.5 598.596 196.472V200H599.628V197.024C599.628 195.668 600.3 194.828 601.272 194.828C602.052 194.828 602.46 195.5 602.46 196.472V200H603.492V196.316C603.492 194.852 602.7 193.88 601.392 193.88C600.504 193.88 599.748 194.372 599.424 195.164C599.124 194.372 598.476 193.88 597.576 193.88C596.772 193.88 596.112 194.288 595.764 194.924V194H594.732V200ZM605.349 202.508H606.381V199.076C606.777 199.652 607.593 200.12 608.493 200.12C610.161 200.12 611.433 198.716 611.433 197C611.433 195.284 610.161 193.88 608.493 193.88C607.593 193.88 606.777 194.348 606.381 194.924V194H605.349V202.508ZM610.377 197C610.377 198.212 609.549 199.172 608.337 199.172C607.125 199.172 606.297 198.212 606.297 197C606.297 195.788 607.125 194.828 608.337 194.828C609.549 194.828 610.377 195.788 610.377 197ZM612.451 197C612.451 198.716 613.711 200.12 615.391 200.12C616.291 200.12 617.107 199.652 617.503 199.076V200H618.535V194H617.503V194.924C617.107 194.348 616.291 193.88 615.391 193.88C613.711 193.88 612.451 195.284 612.451 197ZM617.587 197C617.587 198.212 616.759 199.172 615.547 199.172C614.335 199.172 613.495 198.212 613.495 197C613.495 195.788 614.335 194.828 615.547 194.828C616.759 194.828 617.587 195.788 617.587 197ZM624.618 198.38C624.618 197.48 624.078 196.856 623.082 196.604L622.122 196.352C621.486 196.184 621.21 195.932 621.21 195.488C621.21 195.032 621.666 194.744 622.242 194.744C622.806 194.744 623.238 195.068 623.394 195.596H624.426C624.318 194.636 623.526 193.88 622.242 193.88C621.03 193.88 620.166 194.504 620.166 195.5C620.166 196.352 620.682 197 621.714 197.264L622.578 197.492C623.286 197.684 623.574 197.972 623.574 198.452C623.574 198.98 623.07 199.244 622.422 199.244C621.798 199.244 621.174 198.992 621.03 198.26H619.974C620.058 199.472 621.126 200.12 622.41 200.12C623.658 200.12 624.618 199.568 624.618 198.38ZM630.219 198.38C630.219 197.48 629.679 196.856 628.683 196.604L627.723 196.352C627.087 196.184 626.811 195.932 626.811 195.488C626.811 195.032 627.267 194.744 627.843 194.744C628.407 194.744 628.839 195.068 628.995 195.596H630.027C629.919 194.636 629.127 193.88 627.843 193.88C626.631 193.88 625.767 194.504 625.767 195.5C625.767 196.352 626.283 197 627.315 197.264L628.179 197.492C628.887 197.684 629.175 197.972 629.175 198.452C629.175 198.98 628.671 199.244 628.023 199.244C627.399 199.244 626.775 198.992 626.631 198.26H625.575C625.659 199.472 626.727 200.12 628.011 200.12C629.259 200.12 630.219 199.568 630.219 198.38Z" fill="#001E2B"/>
<path d="M393.552 125.735H388.325C380.485 125.735 374.387 131.839 374.387 139.687V185.033C374.387 196.37 365.239 205.526 353.914 205.526H274.638C263.313 205.526 254.166 196.37 254.166 185.033V139.687C254.166 131.839 248.068 125.735 240.227 125.735H235" fill="white"/>
<path d="M393.552 125.735H388.325C380.485 125.735 374.387 119.63 374.387 111.782V86.4929C374.387 75.1564 365.239 66 353.914 66H274.638C263.313 66 254.166 75.1564 254.166 86.4929V111.782C254.166 119.63 248.068 125.735 240.227 125.735H235" fill="white"/>
<path d="M274.638 73.5571C274.638 73.5571 309.485 83.6328 353.914 73.5571Z" fill="white"/>
<path d="M393.552 125.735H388.325M388.325 125.735C380.485 125.735 374.387 131.839 374.387 139.687V185.033C374.387 196.37 365.239 205.526 353.914 205.526H274.638C263.313 205.526 254.166 196.37 254.166 185.033V139.687C254.166 131.839 248.068 125.735 240.227 125.735M388.325 125.735C380.485 125.735 374.387 119.63 374.387 111.782V86.4929C374.387 75.1564 365.239 66 353.914 66H274.638C263.313 66 254.166 75.1564 254.166 86.4929V111.782C254.166 119.63 248.068 125.735 240.227 125.735M240.227 125.735H235M274.638 73.5571C274.638 73.5571 309.485 83.6328 353.914 73.5571" stroke="#001E2B" stroke-miterlimit="10"/>
<path d="M320.889 109.77C317.53 105.8 314.637 101.767 314.046 100.93C313.984 100.868 313.89 100.868 313.828 100.93C313.237 101.767 310.344 105.8 306.985 109.77C278.151 146.401 311.526 171.121 311.526 171.121L311.806 171.308C312.055 175.123 312.677 180.613 312.677 180.613H313.921H315.166C315.166 180.613 315.788 175.154 316.037 171.308L316.316 171.09C316.348 171.09 349.723 146.401 320.889 109.77ZM313.921 170.563C313.921 170.563 312.428 169.291 312.024 168.64V168.578L313.828 128.69C313.828 128.566 314.015 128.566 314.015 128.69L315.819 168.578V168.64C315.414 169.291 313.921 170.563 313.921 170.563Z" fill="#00ED64"/>
<path d="M574.975 151.105C597.053 151.105 614.95 133.397 614.95 111.553C614.95 89.7083 597.053 72 574.975 72C552.898 72 535 89.7083 535 111.553C535 133.397 552.898 151.105 574.975 151.105Z" fill="white" stroke="#001E2B" stroke-miterlimit="10"/>
<path d="M575.16 151.156C597.19 151.156 615.049 133.316 615.049 111.309C615.049 101.421 611.443 92.3736 605.474 85.4083C614.669 92.708 620.28 103.977 620.28 116.622C620.28 138.629 602.421 156.469 580.391 156.469C568.26 156.469 556.973 150.486 549.657 141.949C556.571 147.698 565.461 151.156 575.16 151.156Z" fill="#001E2B"/>
<path d="M575.305 132.61C586.519 132.61 595.61 123.519 595.61 112.305C595.61 101.091 586.519 92 575.305 92C564.091 92 555 101.091 555 112.305C555 123.519 564.091 132.61 575.305 132.61Z" stroke="#001E2B" stroke-miterlimit="10"/>
<path d="M571.408 116.248L575.134 122.959C575.45 123.465 575.955 123.782 576.587 123.719C577.155 123.655 577.661 123.275 577.85 122.706L584.103 105.422C584.293 104.852 584.166 104.282 583.724 103.839C583.282 103.396 582.713 103.333 582.145 103.523L564.902 109.79C564.333 109.98 563.954 110.487 563.891 111.056C563.828 111.626 564.144 112.196 564.649 112.513L571.408 116.248Z" fill="#00ED64" stroke="#001E2B" stroke-miterlimit="10" stroke-linecap="round" stroke-linejoin="round"/>
<circle cx="155" cy="116" r="4" transform="rotate(-180 155 116)" fill="#001E2B"/>
<path d="M65 116L154 116" stroke="#001E2B" stroke-width="2"/>
<path d="M15.2711 177.756L18.1151 173.892V180H19.5311V171.48H18.2471L15.2591 175.512L12.2831 171.48H10.9991V180H12.4031V173.88L15.2711 177.756ZM20.9111 177C20.9111 178.716 22.1591 180.12 23.8031 180.12C24.6671 180.12 25.3871 179.676 25.7231 179.196V180H27.0431V174H25.7231V174.804C25.3871 174.324 24.6671 173.88 23.8031 173.88C22.1591 173.88 20.9111 175.284 20.9111 177ZM25.8311 177C25.8311 178.08 25.1111 178.92 24.0431 178.92C22.9751 178.92 22.2551 178.08 22.2551 177C22.2551 175.92 22.9751 175.08 24.0431 175.08C25.1111 175.08 25.8311 175.92 25.8311 177ZM28.8314 180H30.1514V177.048C30.1514 175.764 30.8234 175.08 31.6994 175.08C32.4674 175.08 32.9474 175.656 32.9474 176.604V180H34.2674V176.388C34.2674 174.864 33.3674 173.88 31.9754 173.88C31.1954 173.88 30.5114 174.216 30.1514 174.816V174H28.8314V180ZM35.5244 177C35.5244 178.716 36.7724 180.12 38.4164 180.12C39.2804 180.12 40.0004 179.676 40.3364 179.196V180H41.6564V174H40.3364V174.804C40.0004 174.324 39.2804 173.88 38.4164 173.88C36.7724 173.88 35.5244 175.284 35.5244 177ZM40.4444 177C40.4444 178.08 39.7244 178.92 38.6564 178.92C37.5884 178.92 36.8684 178.08 36.8684 177C36.8684 175.92 37.5884 175.08 38.6564 175.08C39.7244 175.08 40.4444 175.92 40.4444 177ZM43.2406 180.468C43.3966 181.716 44.5126 182.628 46.1566 182.628C47.7646 182.628 49.1446 181.716 49.1446 179.628V174H47.8246V174.804C47.4646 174.276 46.7326 173.88 45.9046 173.88C44.2846 173.88 43.0246 175.224 43.0246 176.916C43.0246 178.62 44.2846 179.964 45.9046 179.964C46.7326 179.964 47.4646 179.556 47.8246 179.028V179.736C47.8246 180.9 47.0926 181.5 46.1926 181.5C45.3526 181.5 44.7766 181.176 44.5366 180.468H43.2406ZM47.9326 176.916C47.9326 177.984 47.1646 178.752 46.1446 178.752C45.1246 178.752 44.3566 177.984 44.3566 176.916C44.3566 175.848 45.1246 175.08 46.1446 175.08C47.1646 175.08 47.9326 175.848 47.9326 176.916ZM56.5132 178.116H55.1332C54.8572 178.692 54.2812 178.956 53.6212 178.956C52.5532 178.956 51.8572 178.236 51.8092 177.324H56.5852C56.7052 175.284 55.4212 173.88 53.5852 173.88C51.7372 173.88 50.5012 175.224 50.5012 177C50.5012 178.8 51.7852 180.12 53.5732 180.12C55.0972 180.12 56.1772 179.244 56.5132 178.116ZM53.5492 174.984C54.2812 174.984 54.9652 175.416 55.1692 176.388H51.8572C52.0372 175.464 52.7212 174.984 53.5492 174.984ZM59.5382 180H60.9902L61.9502 177.768H65.7662L66.7382 180H68.2022L64.4822 171.48H63.2582L59.5382 180ZM62.4902 176.52L63.8582 173.364L65.2262 176.52H62.4902ZM72.2983 179.928V178.752C72.1063 178.824 71.8423 178.872 71.5903 178.872C70.9063 178.872 70.5823 178.596 70.5823 177.852V175.176H72.2983V174H70.5823V172.332H69.2623V174H68.0143V175.176H69.2623V178.068C69.2623 179.424 70.1623 180.06 71.3143 180.06C71.7223 180.06 72.0343 180.012 72.2983 179.928ZM73.5501 180H74.8701V171H73.5501V180ZM76.2119 177C76.2119 178.716 77.4599 180.12 79.1039 180.12C79.9679 180.12 80.6879 179.676 81.0239 179.196V180H82.3439V174H81.0239V174.804C80.6879 174.324 79.9679 173.88 79.1039 173.88C77.4599 173.88 76.2119 175.284 76.2119 177ZM81.1319 177C81.1319 178.08 80.4119 178.92 79.3439 178.92C78.2759 178.92 77.5559 178.08 77.5559 177C77.5559 175.92 78.2759 175.08 79.3439 175.08C80.4119 175.08 81.1319 175.92 81.1319 177ZM88.5961 178.344C88.5961 177.432 88.0801 176.808 87.0001 176.532L85.9921 176.268C85.4881 176.136 85.1881 175.932 85.1881 175.548C85.1881 175.164 85.5601 174.936 86.0641 174.936C86.5321 174.936 86.9281 175.176 87.0481 175.68H88.3681C88.2721 174.6 87.3721 173.88 86.0761 173.88C84.7321 173.88 83.8441 174.552 83.8441 175.56C83.8441 176.436 84.3481 177.108 85.3801 177.372L86.3641 177.636C86.9881 177.792 87.2521 178.02 87.2521 178.428C87.2521 178.836 86.8561 179.064 86.2801 179.064C85.6921 179.064 85.1521 178.824 85.0441 178.176H83.6761C83.7481 179.376 84.8401 180.12 86.2441 180.12C87.5881 180.12 88.5961 179.508 88.5961 178.344ZM23.9372 198H25.0892L26.1812 195.516H30.1532L31.2452 198H32.4092L28.6292 189.48H27.7052L23.9372 198ZM26.6132 194.508L28.1612 190.992L29.7092 194.508H26.6132ZM36.3392 197.916V196.992C36.1472 197.064 35.8592 197.112 35.6072 197.112C34.9592 197.112 34.6112 196.86 34.6112 196.092V192.948H36.3392V192H34.6112V190.332H33.5792V192H32.3072V192.948H33.5792V196.224C33.5792 197.472 34.3712 198.06 35.4152 198.06C35.7872 198.06 36.0872 198 36.3392 197.916ZM37.6575 198H38.6895V189H37.6575V198ZM40.1778 195C40.1778 196.716 41.4378 198.12 43.1178 198.12C44.0178 198.12 44.8338 197.652 45.2298 197.076V198H46.2618V192H45.2298V192.924C44.8338 192.348 44.0178 191.88 43.1178 191.88C41.4378 191.88 40.1778 193.284 40.1778 195ZM45.3138 195C45.3138 196.212 44.4858 197.172 43.2738 197.172C42.0618 197.172 41.2218 196.212 41.2218 195C41.2218 193.788 42.0618 192.828 43.2738 192.828C44.4858 192.828 45.3138 193.788 45.3138 195ZM52.3444 196.38C52.3444 195.48 51.8044 194.856 50.8084 194.604L49.8484 194.352C49.2124 194.184 48.9364 193.932 48.9364 193.488C48.9364 193.032 49.3924 192.744 49.9684 192.744C50.5324 192.744 50.9644 193.068 51.1204 193.596H52.1524C52.0444 192.636 51.2524 191.88 49.9684 191.88C48.7564 191.88 47.8924 192.504 47.8924 193.5C47.8924 194.352 48.4084 195 49.4404 195.264L50.3044 195.492C51.0124 195.684 51.3004 195.972 51.3004 196.452C51.3004 196.98 50.7964 197.244 50.1484 197.244C49.5244 197.244 48.9004 196.992 48.7564 196.26H47.7004C47.7844 197.472 48.8524 198.12 50.1364 198.12C51.3844 198.12 52.3444 197.568 52.3444 196.38ZM56.2805 193.74C56.2805 196.224 58.2005 198.144 60.6965 198.144C62.8445 198.144 64.4045 196.74 64.7765 195.192H63.6005C63.2285 196.26 62.1125 197.088 60.6965 197.088C58.8005 197.088 57.3965 195.624 57.3965 193.74C57.3965 191.856 58.8005 190.392 60.6965 190.392C62.1125 190.392 63.2285 191.22 63.6005 192.288H64.7765C64.4045 190.74 62.8445 189.336 60.6965 189.336C58.2005 189.336 56.2805 191.256 56.2805 193.74ZM66.3135 198H71.5455V196.944H67.4295V189.48H66.3135V198ZM72.8878 198H74.0038V189.48H72.8878V198Z" fill="#001E2B"/>
<path d="M47.9752 149.105C70.0529 149.105 87.9504 131.397 87.9504 109.553C87.9504 87.7083 70.0529 70 47.9752 70C25.8975 70 8 87.7083 8 109.553C8 131.397 25.8975 149.105 47.9752 149.105Z" fill="white" stroke="#001E2B" stroke-miterlimit="10"/>
<path d="M48.1597 149.156C70.1897 149.156 88.0485 131.316 88.0485 109.309C88.0485 99.4206 84.443 90.3736 78.4735 83.4083C87.669 90.708 93.2798 101.977 93.2798 114.622C93.2798 136.629 75.421 154.469 53.391 154.469C41.2596 154.469 29.9729 148.486 22.657 139.949C29.5708 145.698 38.461 149.156 48.1597 149.156Z" fill="#001E2B"/>
<circle cx="344" cy="238" r="4" transform="rotate(90 344 238)" fill="#001E2B"/>
<path d="M344 327V238" stroke="#001E2B" stroke-width="2"/>
<path d="M344 326L464 326" stroke="#001E2B" stroke-width="2"/>
<path d="M167 326L288 326" stroke="#001E2B" stroke-width="2"/>
<path d="M441.403 391H442.807V382.48H441.403V391ZM444.669 391H445.989V388.048C445.989 386.764 446.661 386.08 447.537 386.08C448.305 386.08 448.785 386.656 448.785 387.604V391H450.105V387.388C450.105 385.864 449.205 384.88 447.813 384.88C447.033 384.88 446.349 385.216 445.989 385.816V385H444.669V391ZM455.312 390.928V389.752C455.12 389.824 454.856 389.872 454.604 389.872C453.92 389.872 453.596 389.596 453.596 388.852V386.176H455.312V385H453.596V383.332H452.276V385H451.028V386.176H452.276V389.068C452.276 390.424 453.176 391.06 454.328 391.06C454.736 391.06 455.048 391.012 455.312 390.928ZM462.074 389.116H460.694C460.418 389.692 459.842 389.956 459.182 389.956C458.114 389.956 457.418 389.236 457.37 388.324H462.146C462.266 386.284 460.982 384.88 459.146 384.88C457.298 384.88 456.062 386.224 456.062 388C456.062 389.8 457.346 391.12 459.134 391.12C460.658 391.12 461.738 390.244 462.074 389.116ZM459.11 385.984C459.842 385.984 460.526 386.416 460.73 387.388H457.418C457.598 386.464 458.282 385.984 459.11 385.984ZM463.501 391H464.821V388.072C464.821 386.872 465.505 386.236 466.261 386.236C466.501 386.236 466.693 386.272 466.921 386.344V384.988C466.741 384.952 466.573 384.94 466.405 384.94C465.721 384.94 465.049 385.384 464.821 386.068V385H463.501V391ZM468.624 391H469.944V386.176H471.66V385H469.944V384.148C469.944 383.404 470.268 383.128 470.952 383.128C471.204 383.128 471.468 383.176 471.66 383.248V382.072C471.408 381.988 471.084 381.928 470.676 381.928C469.524 381.928 468.624 382.648 468.624 383.992V385H467.376V386.176H468.624V391ZM472.128 388C472.128 389.716 473.376 391.12 475.02 391.12C475.884 391.12 476.604 390.676 476.94 390.196V391H478.26V385H476.94V385.804C476.604 385.324 475.884 384.88 475.02 384.88C473.376 384.88 472.128 386.284 472.128 388ZM477.048 388C477.048 389.08 476.328 389.92 475.26 389.92C474.192 389.92 473.472 389.08 473.472 388C473.472 386.92 474.192 386.08 475.26 386.08C476.328 386.08 477.048 386.92 477.048 388ZM485.808 388.804H484.416C484.176 389.452 483.588 389.92 482.76 389.92C481.692 389.92 480.96 389.116 480.96 388C480.96 386.884 481.692 386.08 482.76 386.08C483.588 386.08 484.176 386.548 484.416 387.196H485.808C485.484 385.864 484.344 384.88 482.76 384.88C480.936 384.88 479.616 386.272 479.616 388C479.616 389.728 480.936 391.12 482.76 391.12C484.344 391.12 485.484 390.136 485.808 388.804ZM492.648 389.116H491.268C490.992 389.692 490.416 389.956 489.756 389.956C488.688 389.956 487.992 389.236 487.944 388.324H492.72C492.84 386.284 491.556 384.88 489.72 384.88C487.872 384.88 486.636 386.224 486.636 388C486.636 389.8 487.92 391.12 489.708 391.12C491.232 391.12 492.312 390.244 492.648 389.116ZM489.684 385.984C490.416 385.984 491.1 386.416 491.304 387.388H487.992C488.172 386.464 488.856 385.984 489.684 385.984ZM501.801 391H503.049L505.065 385H503.661L502.353 389.128L500.985 385H499.977L498.597 389.128L497.301 385H495.909L497.925 391H499.173L500.481 387.112L501.801 391ZM507.588 382.804C507.588 382.324 507.204 381.928 506.712 381.928C506.232 381.928 505.824 382.324 505.824 382.804C505.824 383.296 506.232 383.692 506.712 383.692C507.204 383.692 507.588 383.296 507.588 382.804ZM506.052 391H507.372V385H506.052V391ZM512.734 390.928V389.752C512.542 389.824 512.278 389.872 512.026 389.872C511.342 389.872 511.018 389.596 511.018 388.852V386.176H512.734V385H511.018V383.332H509.698V385H508.45V386.176H509.698V389.068C509.698 390.424 510.598 391.06 511.75 391.06C512.158 391.06 512.47 391.012 512.734 390.928ZM513.986 391H515.306V388.048C515.306 386.764 515.978 386.08 516.854 386.08C517.622 386.08 518.102 386.656 518.102 387.604V391H519.422V387.388C519.422 385.864 518.522 384.88 517.13 384.88C516.35 384.88 515.666 385.216 515.306 385.816V382H513.986V391ZM528.363 388.756L531.207 384.892V391H532.623V382.48H531.339L528.351 386.512L525.375 382.48H524.091V391H525.495V384.88L528.363 388.756ZM540.291 388C540.291 386.26 538.923 384.88 537.147 384.88C535.371 384.88 534.003 386.26 534.003 388C534.003 389.74 535.371 391.12 537.147 391.12C538.923 391.12 540.291 389.74 540.291 388ZM535.335 388C535.335 386.932 536.079 386.104 537.147 386.104C538.203 386.104 538.947 386.932 538.947 388C538.947 389.068 538.203 389.896 537.147 389.896C536.079 389.896 535.335 389.068 535.335 388ZM541.618 391H542.938V388.048C542.938 386.764 543.61 386.08 544.486 386.08C545.254 386.08 545.734 386.656 545.734 387.604V391H547.054V387.388C547.054 385.864 546.154 384.88 544.762 384.88C543.982 384.88 543.298 385.216 542.938 385.816V385H541.618V391ZM548.539 391.468C548.695 392.716 549.811 393.628 551.455 393.628C553.063 393.628 554.443 392.716 554.443 390.628V385H553.123V385.804C552.763 385.276 552.031 384.88 551.203 384.88C549.583 384.88 548.323 386.224 548.323 387.916C548.323 389.62 549.583 390.964 551.203 390.964C552.031 390.964 552.763 390.556 553.123 390.028V390.736C553.123 391.9 552.391 392.5 551.491 392.5C550.651 392.5 550.075 392.176 549.835 391.468H548.539ZM553.231 387.916C553.231 388.984 552.463 389.752 551.443 389.752C550.423 389.752 549.655 388.984 549.655 387.916C549.655 386.848 550.423 386.08 551.443 386.08C552.463 386.08 553.231 386.848 553.231 387.916ZM562.076 388C562.076 386.26 560.708 384.88 558.932 384.88C557.156 384.88 555.788 386.26 555.788 388C555.788 389.74 557.156 391.12 558.932 391.12C560.708 391.12 562.076 389.74 562.076 388ZM557.12 388C557.12 386.932 557.864 386.104 558.932 386.104C559.988 386.104 560.732 386.932 560.732 388C560.732 389.068 559.988 389.896 558.932 389.896C557.864 389.896 557.12 389.068 557.12 388ZM563.489 391H566.105C568.637 391 570.569 389.152 570.569 386.74C570.569 384.328 568.637 382.48 566.105 382.48H563.489V391ZM564.893 389.692V383.788H566.105C567.929 383.788 569.141 385.072 569.141 386.74C569.141 388.408 567.929 389.692 566.105 389.692H564.893ZM572.114 391H575.426C577.046 391 578.174 389.92 578.174 388.504C578.174 387.448 577.586 386.8 576.806 386.476C577.274 386.128 577.598 385.588 577.598 384.832C577.598 383.56 576.578 382.48 575.054 382.48H572.114V391ZM573.518 386.068V383.764H574.982C575.75 383.764 576.218 384.292 576.218 384.916C576.218 385.564 575.75 386.068 574.982 386.068H573.518ZM573.518 389.716V387.268H575.39C576.302 387.268 576.806 387.796 576.806 388.492C576.806 389.2 576.29 389.716 575.39 389.716H573.518ZM472.089 406.504L475.161 402.376V409H476.265V400.48H475.257L472.089 404.728L468.921 400.48H467.901V409H469.017V402.376L472.089 406.504ZM484.065 406C484.065 404.272 482.733 402.88 480.933 402.88C479.121 402.88 477.789 404.272 477.789 406C477.789 407.728 479.121 409.12 480.933 409.12C482.733 409.12 484.065 407.728 484.065 406ZM478.845 406C478.845 404.8 479.685 403.84 480.933 403.84C482.181 403.84 483.009 404.8 483.009 406C483.009 407.2 482.181 408.16 480.933 408.16C479.685 408.16 478.845 407.2 478.845 406ZM485.546 409H486.578V406.024C486.578 404.62 487.346 403.828 488.318 403.828C489.158 403.828 489.734 404.452 489.734 405.46V409H490.754V405.304C490.754 403.816 489.83 402.88 488.486 402.88C487.706 402.88 486.986 403.216 486.578 403.924V403H485.546V409ZM492.349 409.552C492.529 410.764 493.645 411.628 495.253 411.628C496.885 411.628 498.205 410.632 498.205 408.628V403H497.173V403.924C496.765 403.324 495.973 402.88 495.085 402.88C493.417 402.88 492.145 404.224 492.145 405.928C492.145 407.644 493.417 408.988 495.085 408.988C495.973 408.988 496.765 408.532 497.173 407.932V408.64C497.173 409.996 496.357 410.716 495.277 410.716C494.305 410.716 493.633 410.344 493.357 409.552H492.349ZM497.257 405.928C497.257 407.14 496.429 408.028 495.229 408.028C494.029 408.028 493.201 407.14 493.201 405.928C493.201 404.728 494.029 403.828 495.229 403.828C496.429 403.828 497.257 404.728 497.257 405.928ZM505.944 406C505.944 404.272 504.612 402.88 502.812 402.88C501 402.88 499.668 404.272 499.668 406C499.668 407.728 501 409.12 502.812 409.12C504.612 409.12 505.944 407.728 505.944 406ZM500.724 406C500.724 404.8 501.564 403.84 502.812 403.84C504.06 403.84 504.888 404.8 504.888 406C504.888 407.2 504.06 408.16 502.812 408.16C501.564 408.16 500.724 407.2 500.724 406ZM507.546 409H509.994C512.61 409 514.53 407.176 514.53 404.74C514.53 402.304 512.61 400.48 509.994 400.48H507.546V409ZM508.662 407.956V401.524H509.994C512.046 401.524 513.402 402.892 513.402 404.74C513.402 406.588 512.046 407.956 509.994 407.956H508.662ZM516.194 409H519.242C520.97 409 522.098 407.932 522.098 406.516C522.098 405.376 521.45 404.776 520.622 404.476C521.162 404.14 521.534 403.576 521.534 402.736C521.534 401.536 520.574 400.48 518.99 400.48H516.194V409ZM517.31 404.14V401.488H518.99C519.902 401.488 520.442 402.1 520.442 402.82C520.442 403.576 519.902 404.14 518.99 404.14H517.31ZM517.31 407.992V405.1H519.302C520.43 405.1 521.006 405.724 521.006 406.552C521.006 407.392 520.43 407.992 519.29 407.992H517.31ZM526.024 406.72C526.072 408.016 527.2 409.144 528.988 409.144C530.572 409.144 531.7 408.232 531.7 406.792C531.7 405.52 530.956 404.776 529.66 404.308L528.568 403.912C527.74 403.612 527.344 403.252 527.344 402.532C527.344 401.824 527.98 401.38 528.796 401.38C529.492 401.38 530.188 401.752 530.404 402.64H531.508C531.4 401.524 530.548 400.336 528.82 400.336C527.332 400.336 526.228 401.176 526.228 402.568C526.24 403.768 526.876 404.5 528.196 404.968L529.372 405.4C530.164 405.688 530.584 406.156 530.584 406.828C530.584 407.62 529.864 408.1 528.976 408.1C528.172 408.1 527.236 407.668 527.14 406.72H526.024ZM533.206 409H534.238V406.024C534.238 404.62 535.006 403.828 535.978 403.828C536.818 403.828 537.394 404.452 537.394 405.46V409H538.414V405.304C538.414 403.816 537.49 402.88 536.146 402.88C535.366 402.88 534.646 403.216 534.238 403.924V400H533.206V409ZM545.637 407.176H544.581C544.221 407.896 543.585 408.184 542.841 408.184C541.761 408.184 540.885 407.368 540.849 406.276H545.733C545.877 404.416 544.737 402.88 542.853 402.88C540.981 402.88 539.805 404.248 539.805 406C539.805 407.788 541.077 409.12 542.829 409.12C544.353 409.12 545.337 408.232 545.637 407.176ZM542.817 403.792C543.705 403.792 544.449 404.344 544.641 405.46H540.897C541.101 404.272 541.953 403.792 542.817 403.792ZM547.222 409H548.254V400H547.222V409ZM550.21 409H551.242V400H550.21V409Z" fill="#001E2B"/>
<path d="M500.975 361.105C523.053 361.105 540.95 343.397 540.95 321.553C540.95 299.708 523.053 282 500.975 282C478.898 282 461 299.708 461 321.553C461 343.397 478.898 361.105 500.975 361.105Z" fill="white" stroke="#001E2B" stroke-miterlimit="10"/>
<path d="M501.16 361.156C523.19 361.156 541.049 343.316 541.049 321.309C541.049 311.421 537.443 302.374 531.474 295.408C540.669 302.708 546.28 313.977 546.28 326.622C546.28 348.629 528.421 366.469 506.391 366.469C494.26 366.469 482.973 360.486 475.657 351.949C482.571 357.698 491.461 361.156 501.16 361.156Z" fill="#001E2B"/>
<path d="M288 327L288 238" stroke="#001E2B" stroke-width="2"/>
<path d="M77.9874 390H81.2994C82.9194 390 84.0474 388.92 84.0474 387.504C84.0474 386.448 83.4594 385.8 82.6794 385.476C83.1474 385.128 83.4714 384.588 83.4714 383.832C83.4714 382.56 82.4514 381.48 80.9274 381.48H77.9874V390ZM79.3914 385.068V382.764H80.8554C81.6234 382.764 82.0914 383.292 82.0914 383.916C82.0914 384.564 81.6234 385.068 80.8554 385.068H79.3914ZM79.3914 388.716V386.268H81.2634C82.1754 386.268 82.6794 386.796 82.6794 387.492C82.6794 388.2 82.1634 388.716 81.2634 388.716H79.3914ZM85.2825 387.588C85.2825 389.124 86.1345 390.12 87.5145 390.12C88.2825 390.12 88.9185 389.784 89.2665 389.184V390H90.5865V384H89.2665V386.952C89.2665 388.236 88.6545 388.92 87.8025 388.92C87.0345 388.92 86.6025 388.332 86.6025 387.372V384H85.2825V387.588ZM93.8986 381.804C93.8986 381.324 93.5146 380.928 93.0226 380.928C92.5426 380.928 92.1346 381.324 92.1346 381.804C92.1346 382.296 92.5426 382.692 93.0226 382.692C93.5146 382.692 93.8986 382.296 93.8986 381.804ZM92.3626 390H93.6826V384H92.3626V390ZM95.4564 390H96.7764V381H95.4564V390ZM98.1181 387C98.1181 388.716 99.3661 390.12 101.01 390.12C101.874 390.12 102.594 389.676 102.93 389.196V390H104.25V381H102.93V384.804C102.594 384.324 101.874 383.88 101.01 383.88C99.3661 383.88 98.1181 385.284 98.1181 387ZM103.038 387C103.038 388.08 102.318 388.92 101.25 388.92C100.182 388.92 99.4621 388.08 99.4621 387C99.4621 385.92 100.182 385.08 101.25 385.08C102.318 385.08 103.038 385.92 103.038 387ZM107.636 390H109.088L110.048 387.768H113.864L114.836 390H116.3L112.58 381.48H111.356L107.636 390ZM110.588 386.52L111.956 383.364L113.324 386.52H110.588ZM117.242 392.508H118.562V389.196C118.898 389.676 119.63 390.12 120.494 390.12C122.138 390.12 123.386 388.716 123.386 387C123.386 385.284 122.138 383.88 120.494 383.88C119.63 383.88 118.898 384.324 118.562 384.804V384H117.242V392.508ZM122.042 387C122.042 388.08 121.31 388.92 120.254 388.92C119.186 388.92 118.454 388.08 118.454 387C118.454 385.92 119.186 385.08 120.254 385.08C121.31 385.08 122.042 385.92 122.042 387ZM124.73 392.508H126.05V389.196C126.386 389.676 127.118 390.12 127.982 390.12C129.626 390.12 130.874 388.716 130.874 387C130.874 385.284 129.626 383.88 127.982 383.88C127.118 383.88 126.386 384.324 126.05 384.804V384H124.73V392.508ZM129.53 387C129.53 388.08 128.798 388.92 127.742 388.92C126.674 388.92 125.942 388.08 125.942 387C125.942 385.92 126.674 385.08 127.742 385.08C128.798 385.08 129.53 385.92 129.53 387ZM132.218 390H133.538V381H132.218V390ZM136.848 381.804C136.848 381.324 136.464 380.928 135.972 380.928C135.492 380.928 135.084 381.324 135.084 381.804C135.084 382.296 135.492 382.692 135.972 382.692C136.464 382.692 136.848 382.296 136.848 381.804ZM135.312 390H136.632V384H135.312V390ZM144.166 387.804H142.774C142.534 388.452 141.946 388.92 141.118 388.92C140.05 388.92 139.318 388.116 139.318 387C139.318 385.884 140.05 385.08 141.118 385.08C141.946 385.08 142.534 385.548 142.774 386.196H144.166C143.842 384.864 142.702 383.88 141.118 383.88C139.294 383.88 137.974 385.272 137.974 387C137.974 388.728 139.294 390.12 141.118 390.12C142.702 390.12 143.842 389.136 144.166 387.804ZM144.981 387C144.981 388.716 146.229 390.12 147.873 390.12C148.737 390.12 149.457 389.676 149.793 389.196V390H151.113V384H149.793V384.804C149.457 384.324 148.737 383.88 147.873 383.88C146.229 383.88 144.981 385.284 144.981 387ZM149.901 387C149.901 388.08 149.181 388.92 148.113 388.92C147.045 388.92 146.325 388.08 146.325 387C146.325 385.92 147.045 385.08 148.113 385.08C149.181 385.08 149.901 385.92 149.901 387ZM156.49 389.928V388.752C156.298 388.824 156.034 388.872 155.782 388.872C155.098 388.872 154.774 388.596 154.774 387.852V385.176H156.49V384H154.774V382.332H153.454V384H152.206V385.176H153.454V388.068C153.454 389.424 154.354 390.06 155.506 390.06C155.914 390.06 156.226 390.012 156.49 389.928ZM159.278 381.804C159.278 381.324 158.894 380.928 158.402 380.928C157.922 380.928 157.514 381.324 157.514 381.804C157.514 382.296 157.922 382.692 158.402 382.692C158.894 382.692 159.278 382.296 159.278 381.804ZM157.742 390H159.062V384H157.742V390ZM166.691 387C166.691 385.26 165.323 383.88 163.547 383.88C161.771 383.88 160.403 385.26 160.403 387C160.403 388.74 161.771 390.12 163.547 390.12C165.323 390.12 166.691 388.74 166.691 387ZM161.735 387C161.735 385.932 162.479 385.104 163.547 385.104C164.603 385.104 165.347 385.932 165.347 387C165.347 388.068 164.603 388.896 163.547 388.896C162.479 388.896 161.735 388.068 161.735 387ZM168.019 390H169.339V387.048C169.339 385.764 170.011 385.08 170.887 385.08C171.655 385.08 172.135 385.656 172.135 386.604V390H173.455V386.388C173.455 384.864 172.555 383.88 171.163 383.88C170.383 383.88 169.699 384.216 169.339 384.816V384H168.019V390ZM179.608 388.344C179.608 387.432 179.092 386.808 178.012 386.532L177.004 386.268C176.5 386.136 176.2 385.932 176.2 385.548C176.2 385.164 176.572 384.936 177.076 384.936C177.544 384.936 177.94 385.176 178.06 385.68H179.38C179.284 384.6 178.384 383.88 177.088 383.88C175.744 383.88 174.856 384.552 174.856 385.56C174.856 386.436 175.36 387.108 176.392 387.372L177.376 387.636C178 387.792 178.264 388.02 178.264 388.428C178.264 388.836 177.868 389.064 177.292 389.064C176.704 389.064 176.164 388.824 176.056 388.176H174.688C174.76 389.376 175.852 390.12 177.256 390.12C178.6 390.12 179.608 389.508 179.608 388.344ZM70.8863 405.504L73.9583 401.376V408H75.0623V399.48H74.0543L70.8863 403.728L67.7183 399.48H66.6983V408H67.8143V401.376L70.8863 405.504ZM82.8618 405C82.8618 403.272 81.5298 401.88 79.7298 401.88C77.9178 401.88 76.5858 403.272 76.5858 405C76.5858 406.728 77.9178 408.12 79.7298 408.12C81.5298 408.12 82.8618 406.728 82.8618 405ZM77.6418 405C77.6418 403.8 78.4818 402.84 79.7298 402.84C80.9778 402.84 81.8058 403.8 81.8058 405C81.8058 406.2 80.9778 407.16 79.7298 407.16C78.4818 407.16 77.6418 406.2 77.6418 405ZM84.3431 408H85.3751V405.024C85.3751 403.62 86.1431 402.828 87.1151 402.828C87.9551 402.828 88.5311 403.452 88.5311 404.46V408H89.5511V404.304C89.5511 402.816 88.6271 401.88 87.2831 401.88C86.5031 401.88 85.7831 402.216 85.3751 402.924V402H84.3431V408ZM91.1455 408.552C91.3255 409.764 92.4415 410.628 94.0495 410.628C95.6815 410.628 97.0015 409.632 97.0015 407.628V402H95.9695V402.924C95.5615 402.324 94.7695 401.88 93.8815 401.88C92.2135 401.88 90.9415 403.224 90.9415 404.928C90.9415 406.644 92.2135 407.988 93.8815 407.988C94.7695 407.988 95.5615 407.532 95.9695 406.932V407.64C95.9695 408.996 95.1535 409.716 94.0735 409.716C93.1015 409.716 92.4295 409.344 92.1535 408.552H91.1455ZM96.0535 404.928C96.0535 406.14 95.2255 407.028 94.0255 407.028C92.8255 407.028 91.9975 406.14 91.9975 404.928C91.9975 403.728 92.8255 402.828 94.0255 402.828C95.2255 402.828 96.0535 403.728 96.0535 404.928ZM104.741 405C104.741 403.272 103.409 401.88 101.609 401.88C99.7967 401.88 98.4647 403.272 98.4647 405C98.4647 406.728 99.7967 408.12 101.609 408.12C103.409 408.12 104.741 406.728 104.741 405ZM99.5207 405C99.5207 403.8 100.361 402.84 101.609 402.84C102.857 402.84 103.685 403.8 103.685 405C103.685 406.2 102.857 407.16 101.609 407.16C100.361 407.16 99.5207 406.2 99.5207 405ZM106.343 408H108.791C111.407 408 113.327 406.176 113.327 403.74C113.327 401.304 111.407 399.48 108.791 399.48H106.343V408ZM107.459 406.956V400.524H108.791C110.843 400.524 112.199 401.892 112.199 403.74C112.199 405.588 110.843 406.956 108.791 406.956H107.459ZM114.991 408H118.039C119.767 408 120.895 406.932 120.895 405.516C120.895 404.376 120.247 403.776 119.419 403.476C119.959 403.14 120.331 402.576 120.331 401.736C120.331 400.536 119.371 399.48 117.787 399.48H114.991V408ZM116.107 403.14V400.488H117.787C118.699 400.488 119.239 401.1 119.239 401.82C119.239 402.576 118.699 403.14 117.787 403.14H116.107ZM116.107 406.992V404.1H118.099C119.227 404.1 119.803 404.724 119.803 405.552C119.803 406.392 119.227 406.992 118.087 406.992H116.107ZM125.628 408H126.66V402.948H128.4V402H126.66V400.896C126.66 400.14 126.996 399.876 127.656 399.876C127.896 399.876 128.208 399.924 128.4 399.996V399.084C128.136 398.988 127.824 398.928 127.464 398.928C126.42 398.928 125.628 399.552 125.628 400.788V402H124.356V402.948H125.628V408ZM135.174 405C135.174 403.272 133.842 401.88 132.042 401.88C130.23 401.88 128.898 403.272 128.898 405C128.898 406.728 130.23 408.12 132.042 408.12C133.842 408.12 135.174 406.728 135.174 405ZM129.954 405C129.954 403.8 130.794 402.84 132.042 402.84C133.29 402.84 134.118 403.8 134.118 405C134.118 406.2 133.29 407.16 132.042 407.16C130.794 407.16 129.954 406.2 129.954 405ZM136.656 408H137.688V405.024C137.688 403.62 138.516 402.96 139.272 402.96C139.476 402.96 139.644 402.984 139.836 403.056V401.988C139.668 401.952 139.524 401.94 139.368 401.94C138.672 401.94 137.928 402.396 137.688 403.164V402H136.656V408ZM146.025 408H146.961L150.585 399.48H149.373L146.505 406.248L143.625 399.48H142.389L146.025 408ZM151.071 405.72C151.119 407.016 152.247 408.144 154.035 408.144C155.619 408.144 156.747 407.232 156.747 405.792C156.747 404.52 156.003 403.776 154.707 403.308L153.615 402.912C152.787 402.612 152.391 402.252 152.391 401.532C152.391 400.824 153.027 400.38 153.843 400.38C154.539 400.38 155.235 400.752 155.451 401.64H156.555C156.447 400.524 155.595 399.336 153.867 399.336C152.379 399.336 151.275 400.176 151.275 401.568C151.287 402.768 151.923 403.5 153.243 403.968L154.419 404.4C155.211 404.688 155.631 405.156 155.631 405.828C155.631 406.62 154.911 407.1 154.023 407.1C153.219 407.1 152.283 406.668 152.187 405.72H151.071ZM160.74 403.74C160.74 406.224 162.66 408.144 165.156 408.144C167.304 408.144 168.864 406.74 169.236 405.192H168.06C167.688 406.26 166.572 407.088 165.156 407.088C163.26 407.088 161.856 405.624 161.856 403.74C161.856 401.856 163.26 400.392 165.156 400.392C166.572 400.392 167.688 401.22 168.06 402.288H169.236C168.864 400.74 167.304 399.336 165.156 399.336C162.66 399.336 160.74 401.256 160.74 403.74ZM176.413 405C176.413 403.272 175.081 401.88 173.281 401.88C171.469 401.88 170.137 403.272 170.137 405C170.137 406.728 171.469 408.12 173.281 408.12C175.081 408.12 176.413 406.728 176.413 405ZM171.193 405C171.193 403.8 172.033 402.84 173.281 402.84C174.529 402.84 175.357 403.8 175.357 405C175.357 406.2 174.529 407.16 173.281 407.16C172.033 407.16 171.193 406.2 171.193 405ZM177.426 405C177.426 406.716 178.686 408.12 180.366 408.12C181.266 408.12 182.082 407.652 182.478 407.076V408H183.51V399H182.478V402.924C182.082 402.348 181.266 401.88 180.366 401.88C178.686 401.88 177.426 403.284 177.426 405ZM182.562 405C182.562 406.212 181.734 407.172 180.522 407.172C179.31 407.172 178.47 406.212 178.47 405C178.47 403.788 179.31 402.828 180.522 402.828C181.734 402.828 182.562 403.788 182.562 405ZM190.816 406.176H189.76C189.4 406.896 188.764 407.184 188.02 407.184C186.94 407.184 186.064 406.368 186.028 405.276H190.912C191.056 403.416 189.916 401.88 188.032 401.88C186.16 401.88 184.984 403.248 184.984 405C184.984 406.788 186.256 408.12 188.008 408.12C189.532 408.12 190.516 407.232 190.816 406.176ZM187.996 402.792C188.884 402.792 189.628 403.344 189.82 404.46H186.076C186.28 403.272 187.132 402.792 187.996 402.792ZM56.232 423.504L59.304 419.376V426H60.408V417.48H59.4L56.232 421.728L53.064 417.48H52.044V426H53.16V419.376L56.232 423.504ZM68.2075 423C68.2075 421.272 66.8755 419.88 65.0755 419.88C63.2635 419.88 61.9315 421.272 61.9315 423C61.9315 424.728 63.2635 426.12 65.0755 426.12C66.8755 426.12 68.2075 424.728 68.2075 423ZM62.9875 423C62.9875 421.8 63.8275 420.84 65.0755 420.84C66.3235 420.84 67.1515 421.8 67.1515 423C67.1515 424.2 66.3235 425.16 65.0755 425.16C63.8275 425.16 62.9875 424.2 62.9875 423ZM69.6888 426H70.7208V423.024C70.7208 421.62 71.4888 420.828 72.4608 420.828C73.3008 420.828 73.8768 421.452 73.8768 422.46V426H74.8968V422.304C74.8968 420.816 73.9728 419.88 72.6288 419.88C71.8488 419.88 71.1288 420.216 70.7208 420.924V420H69.6888V426ZM76.4912 426.552C76.6712 427.764 77.7872 428.628 79.3952 428.628C81.0272 428.628 82.3472 427.632 82.3472 425.628V420H81.3152V420.924C80.9072 420.324 80.1152 419.88 79.2272 419.88C77.5592 419.88 76.2872 421.224 76.2872 422.928C76.2872 424.644 77.5592 425.988 79.2272 425.988C80.1152 425.988 80.9072 425.532 81.3152 424.932V425.64C81.3152 426.996 80.4992 427.716 79.4192 427.716C78.4472 427.716 77.7752 427.344 77.4992 426.552H76.4912ZM81.3992 422.928C81.3992 424.14 80.5712 425.028 79.3712 425.028C78.1712 425.028 77.3432 424.14 77.3432 422.928C77.3432 421.728 78.1712 420.828 79.3712 420.828C80.5712 420.828 81.3992 421.728 81.3992 422.928ZM90.0864 423C90.0864 421.272 88.7544 419.88 86.9544 419.88C85.1424 419.88 83.8104 421.272 83.8104 423C83.8104 424.728 85.1424 426.12 86.9544 426.12C88.7544 426.12 90.0864 424.728 90.0864 423ZM84.8664 423C84.8664 421.8 85.7064 420.84 86.9544 420.84C88.2024 420.84 89.0304 421.8 89.0304 423C89.0304 424.2 88.2024 425.16 86.9544 425.16C85.7064 425.16 84.8664 424.2 84.8664 423ZM91.6885 426H94.1365C96.7525 426 98.6725 424.176 98.6725 421.74C98.6725 419.304 96.7525 417.48 94.1365 417.48H91.6885V426ZM92.8045 424.956V418.524H94.1365C96.1885 418.524 97.5445 419.892 97.5445 421.74C97.5445 423.588 96.1885 424.956 94.1365 424.956H92.8045ZM100.337 426H103.385C105.113 426 106.241 424.932 106.241 423.516C106.241 422.376 105.593 421.776 104.765 421.476C105.305 421.14 105.677 420.576 105.677 419.736C105.677 418.536 104.717 417.48 103.133 417.48H100.337V426ZM101.453 421.14V418.488H103.133C104.045 418.488 104.585 419.1 104.585 419.82C104.585 420.576 104.045 421.14 103.133 421.14H101.453ZM101.453 424.992V422.1H103.445C104.573 422.1 105.149 422.724 105.149 423.552C105.149 424.392 104.573 424.992 103.433 424.992H101.453ZM109.324 426H110.476L111.568 423.516H115.54L116.632 426H117.796L114.016 417.48H113.092L109.324 426ZM112 422.508L113.548 418.992L115.096 422.508H112ZM118.837 426H119.869V423.024C119.869 421.62 120.637 420.828 121.609 420.828C122.449 420.828 123.025 421.452 123.025 422.46V426H124.045V422.304C124.045 420.816 123.121 419.88 121.777 419.88C120.997 419.88 120.277 420.216 119.869 420.924V420H118.837V426ZM125.436 423C125.436 424.716 126.696 426.12 128.376 426.12C129.276 426.12 130.092 425.652 130.488 425.076V426H131.52V420H130.488V420.924C130.092 420.348 129.276 419.88 128.376 419.88C126.696 419.88 125.436 421.284 125.436 423ZM130.572 423C130.572 424.212 129.744 425.172 128.532 425.172C127.32 425.172 126.48 424.212 126.48 423C126.48 421.788 127.32 420.828 128.532 420.828C129.744 420.828 130.572 421.788 130.572 423ZM133.462 426H134.494V417H133.462V426ZM138.047 428.508L141.983 420H140.831L138.779 424.548L136.715 420H135.575L138.203 425.688L136.895 428.508H138.047ZM142.521 426H147.393V425.052H143.865L147.285 420.828V420H142.569V420.948H145.965L142.521 425.184V426ZM154.084 424.176H153.028C152.668 424.896 152.032 425.184 151.288 425.184C150.208 425.184 149.332 424.368 149.296 423.276H154.18C154.324 421.416 153.184 419.88 151.3 419.88C149.428 419.88 148.252 421.248 148.252 423C148.252 424.788 149.524 426.12 151.276 426.12C152.8 426.12 153.784 425.232 154.084 424.176ZM151.264 420.792C152.152 420.792 152.896 421.344 153.088 422.46H149.344C149.548 421.272 150.4 420.792 151.264 420.792ZM155.669 426H156.701V423.024C156.701 421.62 157.529 420.96 158.285 420.96C158.489 420.96 158.657 420.984 158.849 421.056V419.988C158.681 419.952 158.537 419.94 158.381 419.94C157.685 419.94 156.941 420.396 156.701 421.164V420H155.669V426ZM163.005 426H164.037V420.948H165.777V420H164.037V418.896C164.037 418.14 164.373 417.876 165.033 417.876C165.273 417.876 165.585 417.924 165.777 417.996V417.084C165.513 416.988 165.201 416.928 164.841 416.928C163.797 416.928 163.005 417.552 163.005 418.788V420H161.733V420.948H163.005V426ZM172.551 423C172.551 421.272 171.219 419.88 169.419 419.88C167.607 419.88 166.275 421.272 166.275 423C166.275 424.728 167.607 426.12 169.419 426.12C171.219 426.12 172.551 424.728 172.551 423ZM167.331 423C167.331 421.8 168.171 420.84 169.419 420.84C170.667 420.84 171.495 421.8 171.495 423C171.495 424.2 170.667 425.16 169.419 425.16C168.171 425.16 167.331 424.2 167.331 423ZM174.033 426H175.065V423.024C175.065 421.62 175.893 420.96 176.649 420.96C176.853 420.96 177.021 420.984 177.213 421.056V419.988C177.045 419.952 176.901 419.94 176.745 419.94C176.049 419.94 175.305 420.396 175.065 421.164V420H174.033V426ZM182.445 425.196C182.445 424.716 182.049 424.296 181.557 424.296C181.065 424.296 180.669 424.716 180.669 425.196C180.669 425.688 181.065 426.096 181.557 426.096C182.049 426.096 182.445 425.688 182.445 425.196ZM191.456 426V417.48H190.352V424.116L185.168 417.48H184.196V426H185.312V419.364L190.496 426H191.456ZM193.724 426H198.692V424.944H194.84V422.172H197.972V421.116H194.84V418.536H198.692V417.48H193.724V426ZM202.131 426H203.223V418.536H205.875V417.48H199.479V418.536H202.131V426Z" fill="#001E2B"/>
<circle cx="288" cy="238" r="4" transform="rotate(90 288 238)" fill="#001E2B"/>
<path d="M125.975 361.105C148.053 361.105 165.95 343.397 165.95 321.553C165.95 299.708 148.053 282 125.975 282C103.898 282 86 299.708 86 321.553C86 343.397 103.898 361.105 125.975 361.105Z" fill="white" stroke="#001E2B" stroke-miterlimit="10"/>
<path d="M126.16 361.156C148.19 361.156 166.049 343.316 166.049 321.309C166.049 311.421 162.443 302.374 156.474 295.408C165.669 302.708 171.28 313.977 171.28 326.622C171.28 348.629 153.421 366.469 131.391 366.469C119.26 366.469 107.973 360.486 100.657 351.949C107.571 357.698 116.461 361.156 126.16 361.156Z" fill="#001E2B"/>
<path d="M520.398 338.996H482.271C481.572 338.996 481 338.425 481 337.727V307.269C481 306.571 481.572 306 482.271 306H520.334C521.033 306 521.605 306.571 521.605 307.269V337.663C521.669 338.425 521.097 338.996 520.398 338.996Z" stroke="#001E2B" stroke-miterlimit="10" stroke-linejoin="round"/>
<path d="M521.61 312.345H481V307.333C481 306.571 481.571 306 482.333 306H520.277C521.039 306 521.61 306.571 521.61 307.333V312.345Z" fill="#00ED64" stroke="#001E2B" stroke-miterlimit="10" stroke-linecap="round" stroke-linejoin="round"/>
<path d="M501.305 331.381H510.189" stroke="#001E2B" stroke-miterlimit="10" stroke-linejoin="round"/>
<path d="M492.421 318.691L498.576 324.562C498.83 324.815 498.83 325.257 498.576 325.51L492.421 331.381" stroke="#001E2B" stroke-miterlimit="10" stroke-linejoin="round"/>
<path d="M67.3409 125.996H29.2691C28.5711 125.996 28 125.425 28 124.727V94.2691C28 93.5711 28.5711 93 29.2691 93H67.2775C67.9755 93 68.5465 93.5711 68.5465 94.2691V124.663C68.61 125.425 68.0389 125.996 67.3409 125.996Z" stroke="#001E2B" stroke-miterlimit="10" stroke-linejoin="round"/>
<path d="M68.61 99.3453H28V94.3325C28 93.5711 28.5711 93 29.3325 93H67.2775C68.0389 93 68.61 93.5711 68.61 94.3325V99.3453Z" fill="#00ED64" stroke="#001E2B" stroke-miterlimit="10" stroke-linecap="round" stroke-linejoin="round"/>
<path d="M52.7387 112.102C52.3958 109.906 50.5591 108.229 48.3446 108.229C46.6039 108.229 45.0787 109.294 44.3443 110.808C44.2416 111.02 44.018 111.148 43.7827 111.145C43.7673 111.144 43.7519 111.144 43.7364 111.144C42.3307 111.023 40.6907 112.316 40.6907 114.06C40.6907 115.804 42.0543 117.112 43.7364 117.112H53.6937C54.9229 117.112 55.9194 116.185 55.9194 114.91C55.9194 113.636 54.9229 112.602 53.6937 112.602C53.6333 112.602 53.57 112.608 53.5055 112.619C53.1543 112.676 52.7936 112.453 52.7387 112.102Z" fill="#00ED64" stroke="#001E2B"/>
<rect x="184.5" y="11.5" width="29" height="45" fill="#00ED64" stroke="black"/>
<path d="M199 141L199 25" stroke="#001E2B" stroke-width="2"/>
<path d="M223 86L254 86" stroke="#001E2B" stroke-width="2"/>
<path d="M223 85L223 141" stroke="#001E2B" stroke-width="2"/>
<path d="M223 181L254 181" stroke="#001E2B" stroke-width="2"/>
<path d="M223 180L223 213" stroke="#001E2B" stroke-width="2"/>
<path d="M198 213H224" stroke="#001E2B" stroke-width="2"/>
<path d="M198 141H224" stroke="#001E2B" stroke-width="2"/>
<path d="M199 152L199 213" stroke="#001E2B" stroke-width="2"/>
<path d="M250 185C247.791 185 246 183.209 246 181V181C246 178.791 247.791 177 250 177L254 177L254 185L250 185Z" fill="#001E2B"/>
<path d="M250 90C247.791 90 246 88.2091 246 86V86C246 83.7909 247.791 82 250 82L254 82L254 90L250 90Z" fill="#001E2B"/>
<path d="M203 42C203 44.2091 201.209 46 199 46V46C196.791 46 195 44.2091 195 42L195 38L203 38L203 42Z" fill="#001E2B"/>
<path d="M203 25C203 27.2091 201.209 29 199 29V29C196.791 29 195 27.2091 195 25L195 21L203 21L203 25Z" fill="#001E2B"/>
<path d="M199 111L203.33 118.5H194.67L199 111Z" fill="#001E2B"/>
<path d="M223 197L227.33 204.5H218.67L223 197Z" fill="#001E2B"/>
<path d="M223 126L218.67 118.5L227.33 118.5L223 126Z" fill="#001E2B"/>
<path d="M199 197L194.67 189.5L203.33 189.5L199 197Z" fill="#001E2B"/>
<path d="M136.775 309.345C137.651 309.345 138.361 308.635 138.361 307.759C138.361 306.883 137.651 306.173 136.775 306.173C135.899 306.173 135.188 306.883 135.188 307.759C135.188 308.635 135.899 309.345 136.775 309.345Z" fill="#00ED64" stroke="#001E2B" stroke-miterlimit="10"/>
<path d="M137.105 303.007C139.476 303.158 141.395 305.076 141.524 307.445C141.697 310.203 139.519 312.487 136.803 312.487C136.459 312.487 136.114 312.444 135.769 312.379C135.704 312.358 135.618 312.379 135.575 312.444L119.645 328.343C119.58 328.408 119.559 328.494 119.602 328.58C119.925 329.313 120.119 330.11 120.184 330.929C120.464 335.087 117.188 338.534 113.092 338.534C112.23 338.534 111.411 338.383 110.656 338.103C110.354 337.995 110.268 337.607 110.505 337.392L113.954 334.009C114.407 333.557 114.407 332.803 113.954 332.329L112.273 330.649C111.82 330.196 111.066 330.196 110.591 330.649L107.142 334.053C106.927 334.268 106.539 334.182 106.431 333.88C106.151 333.105 106 332.286 106 331.424C106 327.331 109.471 324.056 113.609 324.336C114.493 324.401 115.334 324.616 116.088 324.982C116.174 325.026 116.261 325.004 116.325 324.939L132.169 309.147C132.212 309.104 132.234 309.018 132.234 308.932C132.126 308.544 132.083 308.156 132.083 307.747C132.061 305.033 134.346 302.857 137.105 303.007Z" stroke="#001E2B" stroke-miterlimit="10"/>
<path d="M120.901 311.062L119.277 312.801C118.84 313.27 118.111 313.27 117.653 312.801L112.408 307.158C112.324 307.069 112.324 306.935 112.408 306.846L115.343 303.701C115.426 303.612 115.551 303.612 115.634 303.701L120.901 309.344C121.338 309.813 121.338 310.593 120.901 311.062Z" fill="#00ED64" stroke="#001E2B" stroke-miterlimit="10"/>
<path d="M137.726 324.536C138.181 324.082 138.939 324.082 139.415 324.536L145.214 330.406C147.075 332.267 147.075 335.276 145.214 337.138C143.352 338.999 140.344 338.999 138.482 337.138L132.617 331.273C132.163 330.818 132.163 330.061 132.617 329.584" fill="#00ED64"/>
<path d="M132.617 329.584C133.078 329.124 133.078 328.421 132.617 327.938C132.157 327.477 131.389 327.477 130.907 327.938C130.425 328.399 129.679 328.399 129.197 327.938C128.714 327.477 128.736 326.709 129.197 326.226L134.306 321.113C134.766 320.652 135.534 320.652 136.016 321.113C136.477 321.573 136.477 322.342 136.016 322.824C135.556 323.285 135.556 324.054 136.016 324.536C136.477 325.019 137.244 324.997 137.726 324.536" fill="#00ED64"/>
<path d="M137.726 324.536C138.181 324.082 138.939 324.082 139.415 324.536L145.214 330.406C147.075 332.267 147.075 335.276 145.214 337.138C143.352 338.999 140.344 338.999 138.482 337.138L132.617 331.273C132.163 330.818 132.163 330.061 132.617 329.584" stroke="#001E2B" stroke-miterlimit="10"/>
<path d="M132.617 329.584C133.078 329.124 133.078 328.421 132.617 327.938C132.157 327.477 131.389 327.477 130.907 327.938C130.425 328.399 129.679 328.399 129.197 327.938C128.714 327.477 128.736 326.709 129.197 326.226L134.306 321.113C134.766 320.652 135.534 320.652 136.016 321.113C136.477 321.573 136.477 322.342 136.016 322.824C135.556 323.285 135.556 324.054 136.016 324.536C136.477 325.019 137.244 324.997 137.726 324.536" stroke="#001E2B" stroke-miterlimit="10"/>
<path d="M119.96 311.883L131.699 323.622" stroke="#001E2B" stroke-miterlimit="10"/>
</svg>
